<svg width="20" height="22" viewBox="0 0 20 22" fill="none" xmlns="http://www.w3.org/2000/svg">
<path d="M15 0H5C2.23858 0 0 2.42718 0 5.42125V16.2638C0 19.2578 2.23858 21.685 5 21.685H15C17.7614 21.685 20 19.2578 20 16.2638V5.42125C20 2.42718 17.7614 0 15 0Z" fill="white"/>
<path d="M14.0002 10.1593C14.1236 11.0617 13.9815 11.9833 13.594 12.793C13.2065 13.6027 12.5933 14.2593 11.8418 14.6695C11.0903 15.0796 10.2386 15.2223 9.40798 15.0774C8.57732 14.9325 7.80996 14.5073 7.21503 13.8622C6.62011 13.2172 6.22793 12.3852 6.09426 11.4845C5.9606 10.5839 6.09226 9.66046 6.47052 8.84563C6.84878 8.03079 7.45438 7.36603 8.20118 6.94588C8.94798 6.52573 9.79795 6.3716 10.6302 6.50541C11.4791 6.6419 12.265 7.07081 12.8719 7.72878C13.4787 8.38675 13.8743 9.23889 14.0002 10.1593Z" fill="white" stroke="black" stroke-linecap="round" stroke-linejoin="round"/>
<path d="M15.5 4.87939H15.51" stroke="black" stroke-width="2" stroke-linecap="round" stroke-linejoin="round"/>
</svg>
