<svg width="895" height="895" viewBox="0 0 895 895" fill="none" xmlns="http://www.w3.org/2000/svg">
<circle cx="447.5" cy="447.5" r="447.5" fill="white"/>
<path d="M354 228C362.284 228 369 221.284 369 213C369 204.716 362.284 198 354 198C345.716 198 339 204.716 339 213C339 221.284 345.716 228 354 228Z" fill="#FC9701"/>
<path d="M336.728 236L324 248.728L345.213 269.941L357.941 257.213L336.728 236Z" fill="#FC9701"/>
<path d="M383.941 248.728L371.213 236L350 257.213L362.728 269.941L383.941 248.728Z" fill="#FC9701"/>
<path d="M363 254H345V294H363V254Z" fill="#FC9701"/>
<path d="M354 228C362.284 228 369 221.284 369 213C369 204.716 362.284 198 354 198C345.716 198 339 204.716 339 213C339 221.284 345.716 228 354 228Z" fill="#FC9701"/>
<path d="M336.728 236L324 248.728L345.213 269.941L357.941 257.213L336.728 236Z" fill="#FC9701"/>
<path d="M383.941 248.728L371.213 236L350 257.213L362.728 269.941L383.941 248.728Z" fill="#FC9701"/>
<path d="M363 254H345V294H363V254Z" fill="#FC9701"/>
<path d="M451.882 270.426C457.74 276.284 467.238 276.284 473.096 270.426C478.953 264.568 478.953 255.071 473.096 249.213C467.238 243.355 457.74 243.355 451.882 249.213C446.025 255.071 446.025 264.568 451.882 270.426Z" fill="#FC9701"/>
<path d="M434.012 263.87H416.012V293.87H434.012V263.87Z" fill="#FC9701"/>
<path d="M458.397 306.255V288.255H428.397V306.255H458.397Z" fill="#FC9701"/>
<path d="M439.861 295.175L427.133 282.447L398.849 310.732L411.577 323.459L439.861 295.175Z" fill="#FC9701"/>
<path d="M256.426 270.385C262.284 264.527 262.284 255.03 256.426 249.172C250.568 243.314 241.071 243.314 235.213 249.172C229.355 255.03 229.355 264.527 235.213 270.385C241.071 276.243 250.568 276.243 256.426 270.385Z" fill="#FC9701"/>
<path d="M249.87 288.255V306.255H279.87V288.255H249.87Z" fill="#FC9701"/>
<path d="M292.255 263.87H274.255V293.87H292.255V263.87Z" fill="#FC9701"/>
<path d="M281.176 282.406L268.448 295.134L296.732 323.418L309.46 310.69L281.176 282.406Z" fill="#FC9701"/>
<path d="M354.267 448.268C345.983 448.268 339.267 454.984 339.267 463.268C339.267 471.552 345.983 478.268 354.267 478.268C362.551 478.268 369.267 471.552 369.267 463.268C369.267 454.984 362.551 448.268 354.267 448.268Z" fill="#FC9701"/>
<path d="M371.539 440.268L384.267 427.54L363.054 406.327L350.326 419.055L371.539 440.268Z" fill="#FC9701"/>
<path d="M324.326 427.54L337.054 440.268L358.267 419.055L345.539 406.327L324.326 427.54Z" fill="#FC9701"/>
<path d="M345.267 422.268H363.267V382.268H345.267V422.268Z" fill="#FC9701"/>
<path d="M354.267 448.268C345.983 448.268 339.267 454.984 339.267 463.268C339.267 471.552 345.983 478.268 354.267 478.268C362.551 478.268 369.267 471.552 369.267 463.268C369.267 454.984 362.551 448.268 354.267 448.268Z" fill="#FC9701"/>
<path d="M371.539 440.268L384.267 427.54L363.054 406.327L350.326 419.055L371.539 440.268Z" fill="#FC9701"/>
<path d="M324.326 427.54L337.054 440.268L358.267 419.055L345.539 406.327L324.326 427.54Z" fill="#FC9701"/>
<path d="M345.267 422.268H363.267V382.268H345.267V422.268Z" fill="#FC9701"/>
<path d="M256.385 405.841C250.527 399.983 241.03 399.983 235.172 405.841C229.314 411.699 229.314 421.197 235.172 427.055C241.03 432.912 250.527 432.912 256.385 427.055C262.243 421.197 262.243 411.699 256.385 405.841Z" fill="#FC9701"/>
<path d="M274.255 412.397H292.255V382.397H274.255V412.397Z" fill="#FC9701"/>
<path d="M249.87 370.013V388.013H279.87V370.013H249.87Z" fill="#FC9701"/>
<path d="M268.406 381.092L281.134 393.82L309.418 365.536L296.69 352.808L268.406 381.092Z" fill="#FC9701"/>
<path d="M451.84 405.882C445.982 411.74 445.982 421.238 451.84 427.096C457.698 432.953 467.196 432.953 473.054 427.096C478.911 421.238 478.911 411.74 473.054 405.882C467.196 400.025 457.698 400.025 451.84 405.882Z" fill="#FC9701"/>
<path d="M458.397 388.013V370.013H428.397V388.013H458.397Z" fill="#FC9701"/>
<path d="M416.012 412.397H434.012V382.397H416.012V412.397Z" fill="#FC9701"/>
<path d="M427.091 393.862L439.819 381.134L411.535 352.85L398.807 365.578L427.091 393.862Z" fill="#FC9701"/>
<path d="M543.615 405.79C534.411 405.79 526.229 404.213 519.07 401.06C511.953 397.906 506.328 393.517 502.195 387.892C498.061 382.267 495.866 375.768 495.611 368.396H519.645C519.858 371.933 521.03 375.023 523.161 377.665C525.291 380.264 528.125 382.288 531.662 383.737C535.199 385.186 539.162 385.911 543.551 385.911C548.239 385.911 552.393 385.101 556.016 383.482C559.638 381.82 562.472 379.518 564.517 376.578C566.563 373.638 567.564 370.25 567.521 366.415C567.564 362.452 566.541 358.957 564.453 355.932C562.365 352.906 559.339 350.541 555.376 348.837C551.456 347.132 546.726 346.28 541.186 346.28H529.616V327.999H541.186C545.746 327.999 549.73 327.21 553.139 325.634C556.591 324.057 559.297 321.841 561.257 318.986C563.217 316.088 564.176 312.743 564.134 308.95C564.176 305.243 563.345 302.026 561.641 299.298C559.979 296.528 557.614 294.376 554.545 292.842C551.52 291.308 547.962 290.541 543.871 290.541C539.865 290.541 536.158 291.266 532.749 292.714C529.339 294.163 526.591 296.23 524.503 298.915C522.415 301.557 521.307 304.71 521.179 308.375H498.359C498.53 301.045 500.639 294.611 504.688 289.071C508.778 283.489 514.233 279.142 521.051 276.031C527.869 272.878 535.518 271.301 543.999 271.301C552.734 271.301 560.32 272.942 566.754 276.223C573.232 279.462 578.239 283.83 581.776 289.327C585.313 294.824 587.081 300.896 587.081 307.544C587.124 314.916 584.95 321.095 580.561 326.081C576.214 331.067 570.504 334.327 563.43 335.861V336.884C572.635 338.162 579.688 341.571 584.588 347.111C589.531 352.608 591.982 359.447 591.939 367.629C591.939 374.959 589.851 381.521 585.675 387.317C581.541 393.07 575.831 397.587 568.544 400.868C561.3 404.149 552.99 405.79 543.615 405.79ZM615.158 404V273.091H699.022V292.97H638.873V328.51H693.269V348.389H638.873V404H615.158Z" fill="#FC9701"/>
<path d="M191.591 570V523.455H221.409V530.523H200.023V543.159H219.364V550.227H200.023V570H191.591ZM229.256 570H220.256L236.642 523.455H247.051L263.46 570H254.46L242.028 533H241.665L229.256 570ZM229.551 551.75H254.097V558.523H229.551V551.75ZM269.591 523.455H279.909L293.727 557.182H294.273L308.091 523.455H318.409V570H310.318V538.023H309.886L297.023 569.864H290.977L278.114 537.955H277.682V570H269.591V523.455ZM336.023 523.455V570H327.591V523.455H336.023ZM345.153 570V523.455H353.585V562.932H374.085V570H345.153ZM373.534 523.455H383.057L394.443 544.045H394.898L406.284 523.455H415.807L398.875 552.636V570H390.466V552.636L373.534 523.455ZM437.653 570V523.455H467.472V530.523H446.085V543.159H465.426V550.227H446.085V570H437.653ZM475.153 570V523.455H492.608C496.184 523.455 499.184 524.076 501.608 525.318C504.047 526.561 505.888 528.303 507.131 530.545C508.388 532.773 509.017 535.371 509.017 538.341C509.017 541.326 508.381 543.917 507.108 546.114C505.85 548.295 503.994 549.985 501.54 551.182C499.085 552.364 496.07 552.955 492.494 552.955H480.062V545.955H491.358C493.449 545.955 495.161 545.667 496.494 545.091C497.828 544.5 498.813 543.644 499.449 542.523C500.1 541.386 500.426 539.992 500.426 538.341C500.426 536.689 500.1 535.28 499.449 534.114C498.797 532.932 497.805 532.038 496.472 531.432C495.138 530.811 493.419 530.5 491.312 530.5H483.585V570H475.153ZM499.199 548.909L510.722 570H501.312L489.994 548.909H499.199ZM525.21 523.455V570H516.778V523.455H525.21ZM534.341 570V523.455H564.614V530.523H542.773V543.159H563.045V550.227H542.773V562.932H564.795V570H534.341ZM611.466 523.455V570H603.966L582.034 538.295H581.648V570H573.216V523.455H580.761L602.67 555.182H603.08V523.455H611.466ZM636.426 570H620.653V523.455H636.744C641.366 523.455 645.335 524.386 648.653 526.25C651.987 528.098 654.547 530.758 656.335 534.227C658.123 537.697 659.017 541.848 659.017 546.682C659.017 551.53 658.116 555.697 656.312 559.182C654.525 562.667 651.941 565.341 648.562 567.205C645.199 569.068 641.153 570 636.426 570ZM629.085 562.705H636.017C639.259 562.705 641.964 562.114 644.131 560.932C646.297 559.735 647.926 557.955 649.017 555.591C650.108 553.212 650.653 550.242 650.653 546.682C650.653 543.121 650.108 540.167 649.017 537.818C647.926 535.455 646.313 533.689 644.176 532.523C642.055 531.341 639.419 530.75 636.267 530.75H629.085V562.705ZM692.324 536.25C692.112 534.265 691.218 532.72 689.642 531.614C688.081 530.508 686.051 529.955 683.551 529.955C681.794 529.955 680.286 530.22 679.028 530.75C677.771 531.28 676.809 532 676.142 532.909C675.475 533.818 675.134 534.856 675.119 536.023C675.119 536.992 675.339 537.833 675.778 538.545C676.233 539.258 676.847 539.864 677.619 540.364C678.392 540.848 679.248 541.258 680.188 541.591C681.127 541.924 682.074 542.205 683.028 542.432L687.392 543.523C689.15 543.932 690.839 544.485 692.46 545.182C694.097 545.879 695.559 546.758 696.847 547.818C698.15 548.879 699.18 550.159 699.938 551.659C700.695 553.159 701.074 554.917 701.074 556.932C701.074 559.659 700.377 562.061 698.983 564.136C697.589 566.197 695.574 567.811 692.938 568.977C690.316 570.129 687.142 570.705 683.415 570.705C679.794 570.705 676.65 570.144 673.983 569.023C671.331 567.902 669.256 566.265 667.756 564.114C666.271 561.962 665.468 559.341 665.347 556.25H673.642C673.763 557.871 674.263 559.22 675.142 560.295C676.021 561.371 677.165 562.174 678.574 562.705C679.998 563.235 681.589 563.5 683.347 563.5C685.18 563.5 686.786 563.227 688.165 562.682C689.559 562.121 690.65 561.348 691.438 560.364C692.225 559.364 692.627 558.197 692.642 556.864C692.627 555.652 692.271 554.652 691.574 553.864C690.877 553.061 689.9 552.394 688.642 551.864C687.4 551.318 685.945 550.833 684.278 550.409L678.983 549.045C675.15 548.061 672.119 546.568 669.892 544.568C667.68 542.553 666.574 539.879 666.574 536.545C666.574 533.803 667.316 531.402 668.801 529.341C670.301 527.28 672.339 525.682 674.915 524.545C677.491 523.394 680.407 522.818 683.665 522.818C686.968 522.818 689.862 523.394 692.347 524.545C694.847 525.682 696.809 527.265 698.233 529.295C699.657 531.311 700.392 533.629 700.438 536.25H692.324Z" fill="#FC9701"/>
<path d="M306.136 659.682C302.955 659.682 300.22 659.106 297.932 657.955C295.644 656.803 293.879 655.25 292.636 653.295C291.409 651.326 290.795 649.106 290.795 646.636C290.795 644.773 291.174 643.121 291.932 641.682C292.705 640.242 293.765 638.909 295.114 637.682C296.477 636.455 298.053 635.235 299.841 634.023L308.091 628.409C309.303 627.621 310.22 626.788 310.841 625.909C311.477 625.03 311.795 624 311.795 622.818C311.795 621.818 311.371 620.871 310.523 619.977C309.689 619.083 308.538 618.636 307.068 618.636C306.083 618.636 305.212 618.871 304.455 619.341C303.712 619.795 303.129 620.394 302.705 621.136C302.295 621.879 302.091 622.667 302.091 623.5C302.091 624.515 302.371 625.545 302.932 626.591C303.508 627.636 304.25 628.72 305.159 629.841C306.083 630.962 307.068 632.152 308.114 633.409L329.955 659H321.045L302.909 638.227C301.561 636.652 300.258 635.098 299 633.568C297.758 632.038 296.735 630.447 295.932 628.795C295.144 627.129 294.75 625.326 294.75 623.386C294.75 621.189 295.258 619.227 296.273 617.5C297.288 615.758 298.705 614.386 300.523 613.386C302.356 612.386 304.5 611.886 306.955 611.886C309.409 611.886 311.515 612.371 313.273 613.341C315.03 614.311 316.386 615.598 317.341 617.205C318.295 618.811 318.773 620.561 318.773 622.455C318.773 624.652 318.227 626.621 317.136 628.364C316.045 630.091 314.53 631.659 312.591 633.068L303.182 639.955C301.636 641.076 300.53 642.212 299.864 643.364C299.197 644.5 298.864 645.47 298.864 646.273C298.864 647.5 299.174 648.614 299.795 649.614C300.417 650.614 301.288 651.417 302.409 652.023C303.545 652.614 304.871 652.909 306.386 652.909C308.053 652.909 309.697 652.538 311.318 651.795C312.939 651.038 314.417 649.962 315.75 648.568C317.083 647.174 318.144 645.508 318.932 643.568C319.72 641.614 320.114 639.447 320.114 637.068H327.182C327.182 640.008 326.856 642.568 326.205 644.75C325.553 646.917 324.712 648.75 323.682 650.25C322.652 651.735 321.561 652.924 320.409 653.818C320.045 654.076 319.697 654.333 319.364 654.591C319.03 654.848 318.682 655.106 318.318 655.364C316.682 656.848 314.765 657.939 312.568 658.636C310.386 659.333 308.242 659.682 306.136 659.682ZM350.903 659V612.455H380.722V619.523H359.335V632.159H378.676V639.227H359.335V659H350.903ZM429.994 635.727C429.994 640.742 429.055 645.038 427.176 648.614C425.313 652.174 422.767 654.902 419.54 656.795C416.328 658.689 412.684 659.636 408.608 659.636C404.532 659.636 400.881 658.689 397.653 656.795C394.441 654.886 391.896 652.152 390.017 648.591C388.153 645.015 387.222 640.727 387.222 635.727C387.222 630.712 388.153 626.424 390.017 622.864C391.896 619.288 394.441 616.553 397.653 614.659C400.881 612.765 404.532 611.818 408.608 611.818C412.684 611.818 416.328 612.765 419.54 614.659C422.767 616.553 425.313 619.288 427.176 622.864C429.055 626.424 429.994 630.712 429.994 635.727ZM421.517 635.727C421.517 632.197 420.964 629.22 419.858 626.795C418.767 624.356 417.252 622.515 415.312 621.273C413.373 620.015 411.138 619.386 408.608 619.386C406.078 619.386 403.843 620.015 401.903 621.273C399.964 622.515 398.441 624.356 397.335 626.795C396.244 629.22 395.699 632.197 395.699 635.727C395.699 639.258 396.244 642.242 397.335 644.682C398.441 647.106 399.964 648.947 401.903 650.205C403.843 651.447 406.078 652.068 408.608 652.068C411.138 652.068 413.373 651.447 415.312 650.205C417.252 648.947 418.767 647.106 419.858 644.682C420.964 642.242 421.517 639.258 421.517 635.727ZM479.557 635.727C479.557 640.742 478.617 645.038 476.739 648.614C474.875 652.174 472.33 654.902 469.102 656.795C465.89 658.689 462.246 659.636 458.17 659.636C454.095 659.636 450.443 658.689 447.216 656.795C444.004 654.886 441.458 652.152 439.58 648.591C437.716 645.015 436.784 640.727 436.784 635.727C436.784 630.712 437.716 626.424 439.58 622.864C441.458 619.288 444.004 616.553 447.216 614.659C450.443 612.765 454.095 611.818 458.17 611.818C462.246 611.818 465.89 612.765 469.102 614.659C472.33 616.553 474.875 619.288 476.739 622.864C478.617 626.424 479.557 630.712 479.557 635.727ZM471.08 635.727C471.08 632.197 470.527 629.22 469.42 626.795C468.33 624.356 466.814 622.515 464.875 621.273C462.936 620.015 460.701 619.386 458.17 619.386C455.64 619.386 453.405 620.015 451.466 621.273C449.527 622.515 448.004 624.356 446.898 626.795C445.807 629.22 445.261 632.197 445.261 635.727C445.261 639.258 445.807 642.242 446.898 644.682C448.004 647.106 449.527 648.947 451.466 650.205C453.405 651.447 455.64 652.068 458.17 652.068C460.701 652.068 462.936 651.447 464.875 650.205C466.814 648.947 468.33 647.106 469.42 644.682C470.527 642.242 471.08 639.258 471.08 635.727ZM487.528 659V612.455H495.96V651.932H516.46V659H487.528ZM549.074 625.25C548.862 623.265 547.968 621.72 546.392 620.614C544.831 619.508 542.801 618.955 540.301 618.955C538.544 618.955 537.036 619.22 535.778 619.75C534.521 620.28 533.559 621 532.892 621.909C532.225 622.818 531.884 623.856 531.869 625.023C531.869 625.992 532.089 626.833 532.528 627.545C532.983 628.258 533.597 628.864 534.369 629.364C535.142 629.848 535.998 630.258 536.938 630.591C537.877 630.924 538.824 631.205 539.778 631.432L544.142 632.523C545.9 632.932 547.589 633.485 549.21 634.182C550.847 634.879 552.309 635.758 553.597 636.818C554.9 637.879 555.93 639.159 556.688 640.659C557.445 642.159 557.824 643.917 557.824 645.932C557.824 648.659 557.127 651.061 555.733 653.136C554.339 655.197 552.324 656.811 549.688 657.977C547.066 659.129 543.892 659.705 540.165 659.705C536.544 659.705 533.4 659.144 530.733 658.023C528.081 656.902 526.006 655.265 524.506 653.114C523.021 650.962 522.218 648.341 522.097 645.25H530.392C530.513 646.871 531.013 648.22 531.892 649.295C532.771 650.371 533.915 651.174 535.324 651.705C536.748 652.235 538.339 652.5 540.097 652.5C541.93 652.5 543.536 652.227 544.915 651.682C546.309 651.121 547.4 650.348 548.188 649.364C548.975 648.364 549.377 647.197 549.392 645.864C549.377 644.652 549.021 643.652 548.324 642.864C547.627 642.061 546.65 641.394 545.392 640.864C544.15 640.318 542.695 639.833 541.028 639.409L535.733 638.045C531.9 637.061 528.869 635.568 526.642 633.568C524.43 631.553 523.324 628.879 523.324 625.545C523.324 622.803 524.066 620.402 525.551 618.341C527.051 616.28 529.089 614.682 531.665 613.545C534.241 612.394 537.157 611.818 540.415 611.818C543.718 611.818 546.612 612.394 549.097 613.545C551.597 614.682 553.559 616.265 554.983 618.295C556.407 620.311 557.142 622.629 557.188 625.25H549.074Z" fill="#FC9701"/>
</svg>
